<svg id="Calque_1" data-name="Calque 1" xmlns="http://www.w3.org/2000/svg" viewBox="0 0 17.47 28.71"><defs><style>.cls-1{fill:#ff3232;}.cls-2,.cls-3{fill:none;stroke:#ff3232;stroke-miterlimit:10;}.cls-2{stroke-width:2px;}.cls-3{stroke-linecap:round;}</style></defs><title>iconeiphone</title><path class="cls-1" d="M15.63,4.77A1.63,1.63,0,0,1,17.25,6.4V27.86a1.63,1.63,0,0,1-1.62,1.62H5.4a1.63,1.63,0,0,1-1.62-1.62V6.4A1.63,1.63,0,0,1,5.4,4.77H15.63m0-2H5.4A3.63,3.63,0,0,0,1.78,6.4V27.86A3.63,3.63,0,0,0,5.4,31.49H15.63a3.63,3.63,0,0,0,3.62-3.62V6.4a3.63,3.63,0,0,0-3.62-3.62Z" transform="translate(-1.78 -2.77)"/><line class="cls-2" x1="2" y1="21.59" x2="15.47" y2="21.59"/><line class="cls-2" x1="2" y1="5.84" x2="15.47" y2="5.84"/><line class="cls-3" x1="6.94" y1="3.42" x2="8.36" y2="3.42"/><line class="cls-3" x1="9.55" y1="3.42" x2="10.1" y2="3.42"/><path class="cls-1" d="M10.51,25.83a1.61,1.61,0,1,0,1.61,1.61,1.61,1.61,0,0,0-1.61-1.61Z" transform="translate(-1.78 -2.77)"/></svg>