<svg id="Calque_1" data-name="Calque 1" xmlns="http://www.w3.org/2000/svg" viewBox="0 0 635.7 153.55"><defs><style>.cls-1{fill:#fff;}.cls-2{fill:#030102;}.cls-3{fill:#010101;}.cls-4{fill:#040202;}</style></defs><title>logoComunik</title><rect class="cls-1" width="635.7" height="153.55"/><path class="cls-2" d="M101.47,89.09A46.88,46.88,0,0,1,84.6,114.57,45.62,45.62,0,0,1,56,124.31a44.94,44.94,0,0,1-33.11-13.77A45.18,45.18,0,0,1,9.08,77.37,45.14,45.14,0,0,1,22.84,44.26,45.18,45.18,0,0,1,56,30.49a45.44,45.44,0,0,1,29,10c8.43,6.51,14,15.25,16.8,26.1H92.91a38.83,38.83,0,0,0-13.83-20A37,37,0,0,0,56,38.93,37.16,37.16,0,0,0,28.73,50.15,37.12,37.12,0,0,0,17.51,77.37a37.16,37.16,0,0,0,11.22,27.28A37.16,37.16,0,0,0,56,115.88a37.43,37.43,0,0,0,22.69-7.44,38.57,38.57,0,0,0,14-19.35Z" transform="translate(8.13 8.57)"/><path d="M188.09,44.13a44.89,44.89,0,0,1,13.7,33.17A45.18,45.18,0,0,1,188,110.48a46.85,46.85,0,0,1-66.35,0,45.18,45.18,0,0,1-13.77-33.17,45.48,45.48,0,0,1,13.83-33.17,46.85,46.85,0,0,1,66.35,0Zm-6.32,60.08a36.89,36.89,0,0,0,11.1-26.91,37.9,37.9,0,0,0-38-38,37.9,37.9,0,0,0-38,38,37.9,37.9,0,0,0,38,38A36.89,36.89,0,0,0,181.76,104.22Z" transform="translate(8.13 8.57)"/><path class="cls-1" d="M330.36,64.42v12.7c0,.24,0,.47,0,.71V65C330.39,64.78,330.37,64.6,330.36,64.42Z" transform="translate(8.13 8.57)"/><path class="cls-3" d="M420.44,77.68c.19-12.9,4.28-23.87,12.4-33s17.92-13.77,29.39-13.77,21.33,4.59,29.45,13.83S503.9,64.84,504,77.8v45.51h-8.74V77.8c-.12-10.36-3.41-19.16-9.86-26.48s-14.14-10.85-23.13-10.85-16.74,3.6-23.19,10.79-9.73,16.06-9.92,26.35v45.7h-8.74Z" transform="translate(8.13 8.57)"/><path class="cls-4" d="M526.1,21.32h-9V12.82h9Zm0,101.88h-9V31.73h9Z" transform="translate(8.13 8.57)"/><path d="M405.23,31.64v45.7c-.19,10.29-3.47,19.1-9.93,26.35s-14.21,10.79-23.2,10.79-16.75-3.6-23.14-10.85a39.17,39.17,0,0,1-9.81-25.39l-.09,0V65.15a33.18,33.18,0,0,0-8.72-22.66c-.51-.57-1-1.15-1.58-1.71a34,34,0,0,0-24.62-10,34.5,34.5,0,0,0-19,5.58c-5.64,3.66-9.49,7.69-11.53,12.15-2-4.46-5.89-8.49-11.53-12.15A34.55,34.55,0,0,0,243,30.8a34,34,0,0,0-24.49,10A33.11,33.11,0,0,0,208.06,65v58.22h8.74V65a24.65,24.65,0,0,1,7.81-18,26.21,26.21,0,0,1,44.58,18v58.22h8.74V65a25.13,25.13,0,0,1,7.81-18,26.35,26.35,0,0,1,36.83,0,25.1,25.1,0,0,1,7.78,17.49c0,.19,0,.36,0,.55V77.83a48.89,48.89,0,0,0,8.68,27.69v0a50,50,0,0,0,3.63,4.65c8.13,9.24,18,13.83,29.47,13.83s21.28-4.59,29.4-13.77,12.22-20.09,12.41-33V31.64Z" transform="translate(8.13 8.57)"/><polygon class="cls-3" points="563.99 75.11 616.37 132.32 602.54 132.32 553.8 78.77 553.8 132.26 544.49 132.26 544.49 17.23 553.8 17.23 553.84 72.14 611.74 17.11 624.8 17.11 563.99 75.11"/></svg>