<?xml version="1.0" encoding="utf-8"?>
<!-- Generator: Adobe Illustrator 21.0.2, SVG Export Plug-In . SVG Version: 6.00 Build 0)  -->
<svg version="1.1" id="Calque_1" xmlns="http://www.w3.org/2000/svg" xmlns:xlink="http://www.w3.org/1999/xlink" x="0px" y="0px"
	 viewBox="0 0 635.7 153.6" style="enable-background:new 0 0 635.7 153.6;" xml:space="preserve">
<style type="text/css">
	.st0{fill:#030102;}
	.st1{fill:#FFFFFF;}
	.st2{fill:#010101;}
	.st3{fill:#040202;}
</style>
<path class="st0" d="M109.6,97.7c-2.6,10.1-8.6,19.1-16.9,25.5c-8.2,6.4-18.2,9.8-28.6,9.7c-12.5,0.2-24.5-4.8-33.1-13.8
	c-9-8.7-14-20.7-13.8-33.2C17,73.5,22,61.5,31,52.8c8.7-9,20.7-14,33.2-13.8c10.5-0.1,20.8,3.4,29,10c8.4,6.5,14,15.3,16.8,26.1H101
	c-2.3-8-7.2-15-13.8-20c-6.6-5.1-14.7-7.8-23.1-7.7C53.9,47.3,44,51.4,36.9,58.7c-7.3,7.1-11.4,17-11.2,27.2
	c-0.2,10.3,3.9,20.1,11.2,27.3c7.2,7.3,17,11.4,27.3,11.2c8.2,0.1,16.1-2.5,22.7-7.4c6.6-4.8,11.5-11.6,14-19.3H109.6z"/>
<path d="M196.2,52.7c9,8.7,13.9,20.7,13.7,33.2c0.2,12.5-4.8,24.5-13.8,33.2c-18.3,18.3-47.9,18.4-66.3,0.1c0,0-0.1-0.1-0.1-0.1
	c-9-8.7-14-20.7-13.8-33.2c-0.1-12.5,4.9-24.5,13.8-33.2c18.3-18.3,47.9-18.4,66.3-0.1C196.1,52.6,196.2,52.7,196.2,52.7L196.2,52.7
	z M189.9,112.8c7.2-7.1,11.2-16.8,11.1-26.9c0.1-20.9-16.9-37.9-37.8-38c-0.1,0-0.1,0-0.2,0c-20.9-0.1-37.9,16.9-38,37.8
	c0,0.1,0,0.1,0,0.2c-0.1,20.9,16.9,37.9,37.8,38c0.1,0,0.1,0,0.2,0C173.1,124,182.8,120,189.9,112.8L189.9,112.8z"/>
<path class="st1" d="M338.5,73v12.7c0,0.2,0,0.5,0,0.7V73.6C338.5,73.3,338.5,73.2,338.5,73z"/>
<path class="st2" d="M428.6,86.3c0.2-12.9,4.3-23.9,12.4-33s17.9-13.8,29.4-13.8s21.3,4.6,29.5,13.8s12.2,20.1,12.3,33.1v45.5h-8.7
	V86.4c-0.1-10.4-3.4-19.2-9.9-26.5S479.4,49,470.4,49s-16.7,3.6-23.2,10.8s-9.7,16.1-9.9,26.3v45.7h-8.7L428.6,86.3z"/>
<path class="st3" d="M534.2,29.9h-9v-8.5h9V29.9z M534.2,131.8h-9V40.3h9V131.8z"/>
<path d="M413.4,40.2v45.7c-0.2,10.3-3.5,19.1-9.9,26.3S389.2,123,380.2,123s-16.8-3.6-23.1-10.8c-6.2-7-9.7-16-9.8-25.4h-0.1V73.7
	c0.1-8.4-3.1-16.5-8.7-22.7c-0.5-0.6-1-1.2-1.6-1.7c-6.5-6.5-15.4-10.1-24.6-10c-6.7,0-13.3,1.9-19,5.6c-5.6,3.7-9.5,7.7-11.5,12.2
	c-2-4.5-5.9-8.5-11.5-12.2c-5.7-3.7-12.3-5.6-19.1-5.6c-9.2-0.1-18,3.5-24.5,10c-6.7,6.3-10.5,15-10.4,24.2v58.2h8.7V73.6
	c0-6.8,2.8-13.3,7.8-18c10.3-10.2,26.9-10,37.1,0.3c4.7,4.7,7.3,11.1,7.5,17.7v58.2h8.7V73.6c0.1-6.8,2.9-13.3,7.8-18
	c10.2-10,26.6-10,36.8,0c4.8,4.6,7.6,10.9,7.8,17.5c0,0.2,0,0.4,0,0.6v12.8c0,9.9,3.1,19.6,8.7,27.7l0,0c1.1,1.6,2.3,3.2,3.6,4.7
	c8.1,9.2,18,13.8,29.5,13.8s21.3-4.6,29.4-13.8s12.2-20.1,12.4-33V40.2H413.4z"/>
<polygon class="st2" points="564,75.1 616.4,132.3 602.5,132.3 553.8,78.8 553.8,132.3 544.5,132.3 544.5,17.2 553.8,17.2 
	553.8,72.1 611.7,17.1 624.8,17.1 "/>
</svg>
